<mxfile host="app.diagrams.net" modified="2023-11-29T06:55:13.915Z" agent="Mozilla/5.0 (Windows NT 10.0; Win64; x64; rv:120.0) Gecko/20100101 Firefox/120.0" version="22.1.4" etag="8nne9wAXnrsur8lI5HYr" type="github">
  <diagram name="第 1 页" id="WFArW9m0tcNZP2mW0DKO">
    <mxGraphModel>
      <root>
        <mxCell id="0" />
        <mxCell id="1" parent="0" />
      </root>
    </mxGraphModel>
  </diagram>
</mxfile>
